<mxfile host="www.draw.io" modified="2024-01-28T21:35:51.037Z" agent="Mozilla/5.0 (Windows NT 10.0; Win64; x64) AppleWebKit/537.36 (KHTML, like Gecko) Chrome/120.0.0.0 Safari/537.36 Edg/120.0.0.0" etag="5tFX5XEJy5WZjxsdtigd" version="23.0.2" type="device">
  <diagram name="Page-1" id="fUUMRWsA6-ENVASqNVS9">
    <mxGraphModel dx="1502" dy="727" grid="0" gridSize="25" guides="0" tooltips="0" connect="0" arrows="0" fold="0" page="0" pageScale="1" pageWidth="1100" pageHeight="850" math="0" shadow="0">
      <root>
        <mxCell id="0" />
        <mxCell id="1" parent="0" />
        <mxCell id="et-MrdShaZoxgfBXi2AH-2" value="" style="strokeWidth=2;html=1;shape=mxgraph.flowchart.extract_or_measurement;whiteSpace=wrap;" parent="1" vertex="1">
          <mxGeometry x="100" y="400" width="30" height="20" as="geometry" />
        </mxCell>
        <mxCell id="et-MrdShaZoxgfBXi2AH-9" value="" style="strokeWidth=2;html=1;shape=mxgraph.flowchart.extract_or_measurement;whiteSpace=wrap;" parent="1" vertex="1">
          <mxGeometry x="100" y="580" width="30" height="20" as="geometry" />
        </mxCell>
        <mxCell id="et-MrdShaZoxgfBXi2AH-11" value="" style="strokeWidth=2;html=1;shape=mxgraph.flowchart.start_2;whiteSpace=wrap;" parent="1" vertex="1">
          <mxGeometry x="100" y="560" width="30" height="30" as="geometry" />
        </mxCell>
        <mxCell id="et-MrdShaZoxgfBXi2AH-12" value="" style="strokeWidth=2;html=1;shape=mxgraph.flowchart.extract_or_measurement;whiteSpace=wrap;" parent="1" vertex="1">
          <mxGeometry x="100" y="230" width="30" height="20" as="geometry" />
        </mxCell>
        <mxCell id="et-MrdShaZoxgfBXi2AH-16" value="" style="strokeWidth=2;html=1;shape=mxgraph.flowchart.start_2;whiteSpace=wrap;" parent="1" vertex="1">
          <mxGeometry x="100" y="210" width="30" height="30" as="geometry" />
        </mxCell>
        <mxCell id="et-MrdShaZoxgfBXi2AH-17" value="" style="strokeWidth=2;html=1;shape=mxgraph.flowchart.start_2;whiteSpace=wrap;" parent="1" vertex="1">
          <mxGeometry x="100" y="380" width="30" height="30" as="geometry" />
        </mxCell>
        <mxCell id="et-MrdShaZoxgfBXi2AH-18" value="" style="endArrow=classic;html=1;rounded=0;" parent="1" source="et-MrdShaZoxgfBXi2AH-56" edge="1">
          <mxGeometry width="50" height="50" relative="1" as="geometry">
            <mxPoint x="120" y="160" as="sourcePoint" />
            <mxPoint x="400" y="160" as="targetPoint" />
            <Array as="points">
              <mxPoint x="200" y="160" />
            </Array>
          </mxGeometry>
        </mxCell>
        <mxCell id="et-MrdShaZoxgfBXi2AH-20" value="" style="endArrow=none;html=1;rounded=0;" parent="1" edge="1">
          <mxGeometry width="50" height="50" relative="1" as="geometry">
            <mxPoint x="120" y="210" as="sourcePoint" />
            <mxPoint x="120" y="160" as="targetPoint" />
          </mxGeometry>
        </mxCell>
        <mxCell id="et-MrdShaZoxgfBXi2AH-31" value="" style="endArrow=none;html=1;rounded=0;" parent="1" edge="1">
          <mxGeometry width="50" height="50" relative="1" as="geometry">
            <mxPoint x="120" y="380" as="sourcePoint" />
            <mxPoint x="120" y="320" as="targetPoint" />
          </mxGeometry>
        </mxCell>
        <mxCell id="et-MrdShaZoxgfBXi2AH-36" value="" style="endArrow=none;html=1;rounded=0;" parent="1" edge="1">
          <mxGeometry width="50" height="50" relative="1" as="geometry">
            <mxPoint x="120" y="560" as="sourcePoint" />
            <mxPoint x="120" y="480" as="targetPoint" />
          </mxGeometry>
        </mxCell>
        <mxCell id="et-MrdShaZoxgfBXi2AH-38" value="" style="endArrow=classic;html=1;rounded=0;" parent="1" edge="1">
          <mxGeometry width="50" height="50" relative="1" as="geometry">
            <mxPoint x="220" y="574.5" as="sourcePoint" />
            <mxPoint x="130" y="574.5" as="targetPoint" />
          </mxGeometry>
        </mxCell>
        <mxCell id="ld5_4QrdINL1Et6L0Q0W-37" value="" style="edgeStyle=orthogonalEdgeStyle;rounded=0;orthogonalLoop=1;jettySize=auto;html=1;" edge="1" parent="1" source="et-MrdShaZoxgfBXi2AH-41" target="ld5_4QrdINL1Et6L0Q0W-30">
          <mxGeometry relative="1" as="geometry" />
        </mxCell>
        <mxCell id="et-MrdShaZoxgfBXi2AH-41" value="" style="shape=partialRectangle;whiteSpace=wrap;html=1;bottom=1;right=1;left=1;top=0;fillColor=none;routingCenterX=-0.5;direction=north;" parent="1" vertex="1">
          <mxGeometry x="760" y="220" width="80" height="180" as="geometry" />
        </mxCell>
        <mxCell id="et-MrdShaZoxgfBXi2AH-45" value="" style="shape=partialRectangle;whiteSpace=wrap;html=1;bottom=1;right=1;left=1;top=0;fillColor=none;routingCenterX=-0.5;direction=south;" parent="1" vertex="1">
          <mxGeometry x="225" y="550" width="230" height="50" as="geometry" />
        </mxCell>
        <mxCell id="et-MrdShaZoxgfBXi2AH-47" value="" style="endArrow=classic;html=1;rounded=0;" parent="1" edge="1">
          <mxGeometry width="50" height="50" relative="1" as="geometry">
            <mxPoint x="450" y="220" as="sourcePoint" />
            <mxPoint x="450" y="550" as="targetPoint" />
          </mxGeometry>
        </mxCell>
        <mxCell id="et-MrdShaZoxgfBXi2AH-48" value="" style="endArrow=classic;html=1;rounded=0;" parent="1" edge="1">
          <mxGeometry width="50" height="50" relative="1" as="geometry">
            <mxPoint x="520" y="400" as="sourcePoint" />
            <mxPoint x="520" y="600" as="targetPoint" />
          </mxGeometry>
        </mxCell>
        <mxCell id="et-MrdShaZoxgfBXi2AH-49" value="" style="endArrow=none;html=1;rounded=0;" parent="1" edge="1">
          <mxGeometry width="50" height="50" relative="1" as="geometry">
            <mxPoint x="450" y="600" as="sourcePoint" />
            <mxPoint x="520" y="600" as="targetPoint" />
          </mxGeometry>
        </mxCell>
        <mxCell id="et-MrdShaZoxgfBXi2AH-53" value="" style="shape=collate;whiteSpace=wrap;html=1;direction=south;" parent="1" vertex="1">
          <mxGeometry x="270" y="540" width="20" height="20" as="geometry" />
        </mxCell>
        <mxCell id="et-MrdShaZoxgfBXi2AH-54" value="" style="shape=collate;whiteSpace=wrap;html=1;direction=south;" parent="1" vertex="1">
          <mxGeometry x="270" y="590" width="20" height="20" as="geometry" />
        </mxCell>
        <mxCell id="et-MrdShaZoxgfBXi2AH-56" value="" style="shape=collate;whiteSpace=wrap;html=1;direction=south;" parent="1" vertex="1">
          <mxGeometry x="160" y="150" width="20" height="20" as="geometry" />
        </mxCell>
        <mxCell id="et-MrdShaZoxgfBXi2AH-58" value="" style="endArrow=none;html=1;rounded=0;" parent="1" edge="1">
          <mxGeometry width="50" height="50" relative="1" as="geometry">
            <mxPoint x="120" y="159.5" as="sourcePoint" />
            <mxPoint x="160" y="159.5" as="targetPoint" />
          </mxGeometry>
        </mxCell>
        <mxCell id="et-MrdShaZoxgfBXi2AH-60" value="" style="endArrow=classic;html=1;rounded=0;exitX=1;exitY=0;exitDx=0;exitDy=0;entryX=1;entryY=0.5;entryDx=0;entryDy=0;entryPerimeter=0;exitPerimeter=0;" parent="1" source="et-MrdShaZoxgfBXi2AH-41" edge="1">
          <mxGeometry width="50" height="50" relative="1" as="geometry">
            <mxPoint x="760" y="215" as="sourcePoint" />
            <mxPoint x="130" y="220" as="targetPoint" />
          </mxGeometry>
        </mxCell>
        <mxCell id="et-MrdShaZoxgfBXi2AH-59" value="" style="verticalLabelPosition=bottom;verticalAlign=top;html=1;shape=mxgraph.flowchart.collate;direction=south;" parent="1" vertex="1">
          <mxGeometry x="160" y="210" width="20" height="20" as="geometry" />
        </mxCell>
        <mxCell id="et-MrdShaZoxgfBXi2AH-62" value="" style="endArrow=classic;html=1;rounded=0;" parent="1" edge="1">
          <mxGeometry width="50" height="50" relative="1" as="geometry">
            <mxPoint x="120" y="320" as="sourcePoint" />
            <mxPoint x="240" y="320" as="targetPoint" />
          </mxGeometry>
        </mxCell>
        <mxCell id="et-MrdShaZoxgfBXi2AH-61" value="" style="verticalLabelPosition=bottom;verticalAlign=top;html=1;shape=mxgraph.flowchart.collate;direction=south;" parent="1" vertex="1">
          <mxGeometry x="160" y="310" width="20" height="20" as="geometry" />
        </mxCell>
        <mxCell id="et-MrdShaZoxgfBXi2AH-64" value="" style="endArrow=classic;html=1;rounded=0;" parent="1" edge="1">
          <mxGeometry width="50" height="50" relative="1" as="geometry">
            <mxPoint x="120" y="480" as="sourcePoint" />
            <mxPoint x="360" y="480" as="targetPoint" />
          </mxGeometry>
        </mxCell>
        <mxCell id="et-MrdShaZoxgfBXi2AH-63" value="" style="verticalLabelPosition=bottom;verticalAlign=top;html=1;shape=mxgraph.flowchart.collate;direction=south;" parent="1" vertex="1">
          <mxGeometry x="270" y="470" width="20" height="20" as="geometry" />
        </mxCell>
        <mxCell id="et-MrdShaZoxgfBXi2AH-65" value="" style="verticalLabelPosition=bottom;verticalAlign=top;html=1;shape=mxgraph.flowchart.collate;direction=north;" parent="1" vertex="1">
          <mxGeometry x="170" y="390" width="20" height="20" as="geometry" />
        </mxCell>
        <mxCell id="et-MrdShaZoxgfBXi2AH-67" value="" style="endArrow=classic;html=1;rounded=0;" parent="1" edge="1">
          <mxGeometry width="50" height="50" relative="1" as="geometry">
            <mxPoint x="150" y="399" as="sourcePoint" />
            <mxPoint x="130" y="399" as="targetPoint" />
            <Array as="points">
              <mxPoint x="150" y="399" />
              <mxPoint x="160" y="399" />
              <mxPoint x="170" y="399" />
            </Array>
          </mxGeometry>
        </mxCell>
        <mxCell id="et-MrdShaZoxgfBXi2AH-68" value="" style="endArrow=none;html=1;rounded=0;" parent="1" edge="1">
          <mxGeometry width="50" height="50" relative="1" as="geometry">
            <mxPoint x="240" y="319.5" as="sourcePoint" />
            <mxPoint x="320" y="320" as="targetPoint" />
          </mxGeometry>
        </mxCell>
        <mxCell id="et-MrdShaZoxgfBXi2AH-69" value="" style="endArrow=none;html=1;rounded=0;" parent="1" edge="1">
          <mxGeometry width="50" height="50" relative="1" as="geometry">
            <mxPoint x="320" y="320" as="sourcePoint" />
            <mxPoint x="320" y="240" as="targetPoint" />
          </mxGeometry>
        </mxCell>
        <mxCell id="et-MrdShaZoxgfBXi2AH-70" value="" style="endArrow=classic;html=1;rounded=0;" parent="1" edge="1">
          <mxGeometry width="50" height="50" relative="1" as="geometry">
            <mxPoint x="320" y="240" as="sourcePoint" />
            <mxPoint x="397" y="240" as="targetPoint" />
          </mxGeometry>
        </mxCell>
        <mxCell id="et-MrdShaZoxgfBXi2AH-71" value="" style="endArrow=none;html=1;rounded=0;" parent="1" source="et-MrdShaZoxgfBXi2AH-74" edge="1">
          <mxGeometry width="50" height="50" relative="1" as="geometry">
            <mxPoint x="320" y="300" as="sourcePoint" />
            <mxPoint x="410" y="300" as="targetPoint" />
          </mxGeometry>
        </mxCell>
        <mxCell id="et-MrdShaZoxgfBXi2AH-75" value="" style="endArrow=none;html=1;rounded=0;" parent="1" target="et-MrdShaZoxgfBXi2AH-74" edge="1">
          <mxGeometry width="50" height="50" relative="1" as="geometry">
            <mxPoint x="320" y="300" as="sourcePoint" />
            <mxPoint x="370" y="300" as="targetPoint" />
            <Array as="points">
              <mxPoint x="330" y="300" />
            </Array>
          </mxGeometry>
        </mxCell>
        <mxCell id="et-MrdShaZoxgfBXi2AH-74" value="" style="shape=collate;whiteSpace=wrap;html=1;direction=south;" parent="1" vertex="1">
          <mxGeometry x="340" y="290" width="20" height="20" as="geometry" />
        </mxCell>
        <mxCell id="et-MrdShaZoxgfBXi2AH-76" value="" style="shape=collate;whiteSpace=wrap;html=1;direction=north;" parent="1" vertex="1">
          <mxGeometry x="340" y="260" width="20" height="20" as="geometry" />
        </mxCell>
        <mxCell id="et-MrdShaZoxgfBXi2AH-87" value="" style="endArrow=classic;html=1;rounded=0;" parent="1" edge="1">
          <mxGeometry width="50" height="50" relative="1" as="geometry">
            <mxPoint x="400" y="160" as="sourcePoint" />
            <mxPoint x="400" y="40" as="targetPoint" />
          </mxGeometry>
        </mxCell>
        <mxCell id="et-MrdShaZoxgfBXi2AH-89" value="" style="endArrow=none;html=1;rounded=0;" parent="1" source="et-MrdShaZoxgfBXi2AH-97" edge="1">
          <mxGeometry width="50" height="50" relative="1" as="geometry">
            <mxPoint x="400" y="140" as="sourcePoint" />
            <mxPoint x="550" y="140" as="targetPoint" />
          </mxGeometry>
        </mxCell>
        <mxCell id="et-MrdShaZoxgfBXi2AH-96" value="" style="endArrow=none;html=1;rounded=0;" parent="1" target="et-MrdShaZoxgfBXi2AH-94" edge="1">
          <mxGeometry width="50" height="50" relative="1" as="geometry">
            <mxPoint x="400" y="100" as="sourcePoint" />
            <mxPoint x="560" y="100" as="targetPoint" />
          </mxGeometry>
        </mxCell>
        <mxCell id="et-MrdShaZoxgfBXi2AH-94" value="" style="shape=collate;whiteSpace=wrap;html=1;direction=south;" parent="1" vertex="1">
          <mxGeometry x="500" y="90" width="20" height="20" as="geometry" />
        </mxCell>
        <mxCell id="et-MrdShaZoxgfBXi2AH-98" value="" style="endArrow=none;html=1;rounded=0;" parent="1" target="et-MrdShaZoxgfBXi2AH-97" edge="1">
          <mxGeometry width="50" height="50" relative="1" as="geometry">
            <mxPoint x="400" y="140" as="sourcePoint" />
            <mxPoint x="560" y="140" as="targetPoint" />
          </mxGeometry>
        </mxCell>
        <mxCell id="et-MrdShaZoxgfBXi2AH-97" value="" style="shape=collate;whiteSpace=wrap;html=1;direction=south;" parent="1" vertex="1">
          <mxGeometry x="500" y="130" width="20" height="20" as="geometry" />
        </mxCell>
        <mxCell id="et-MrdShaZoxgfBXi2AH-99" value="" style="endArrow=none;html=1;rounded=0;" parent="1" edge="1">
          <mxGeometry width="50" height="50" relative="1" as="geometry">
            <mxPoint x="320" y="269.5" as="sourcePoint" />
            <mxPoint x="340" y="269.5" as="targetPoint" />
          </mxGeometry>
        </mxCell>
        <mxCell id="et-MrdShaZoxgfBXi2AH-100" value="GA 2600A" style="text;html=1;align=center;verticalAlign=middle;resizable=0;points=[];autosize=1;strokeColor=none;fillColor=none;" parent="1" vertex="1">
          <mxGeometry x="35" y="190" width="80" height="30" as="geometry" />
        </mxCell>
        <mxCell id="et-MrdShaZoxgfBXi2AH-103" value="GA 2613" style="text;html=1;align=center;verticalAlign=middle;resizable=0;points=[];autosize=1;strokeColor=none;fillColor=none;" parent="1" vertex="1">
          <mxGeometry x="40" y="540" width="70" height="30" as="geometry" />
        </mxCell>
        <mxCell id="et-MrdShaZoxgfBXi2AH-104" value="GA 2600B" style="text;html=1;align=center;verticalAlign=middle;resizable=0;points=[];autosize=1;strokeColor=none;fillColor=none;" parent="1" vertex="1">
          <mxGeometry x="30" y="370" width="80" height="30" as="geometry" />
        </mxCell>
        <mxCell id="et-MrdShaZoxgfBXi2AH-105" value="" style="endArrow=classic;html=1;rounded=0;" parent="1" edge="1" source="ld5_4QrdINL1Et6L0Q0W-30">
          <mxGeometry width="50" height="50" relative="1" as="geometry">
            <mxPoint x="840" y="309" as="sourcePoint" />
            <mxPoint x="1020" y="310" as="targetPoint" />
          </mxGeometry>
        </mxCell>
        <mxCell id="et-MrdShaZoxgfBXi2AH-107" value="" style="triangle;whiteSpace=wrap;html=1;direction=north;" parent="1" vertex="1">
          <mxGeometry x="1020" y="320" width="30" height="20" as="geometry" />
        </mxCell>
        <mxCell id="et-MrdShaZoxgfBXi2AH-109" value="" style="endArrow=none;html=1;rounded=0;" parent="1" edge="1">
          <mxGeometry width="50" height="50" relative="1" as="geometry">
            <mxPoint x="1040" y="310" as="sourcePoint" />
            <mxPoint x="1040" y="290" as="targetPoint" />
          </mxGeometry>
        </mxCell>
        <mxCell id="et-MrdShaZoxgfBXi2AH-110" value="" style="endArrow=classic;html=1;rounded=0;" parent="1" edge="1">
          <mxGeometry width="50" height="50" relative="1" as="geometry">
            <mxPoint x="1040" y="290" as="sourcePoint" />
            <mxPoint x="1085" y="290" as="targetPoint" />
          </mxGeometry>
        </mxCell>
        <mxCell id="ld5_4QrdINL1Et6L0Q0W-1" value="" style="endArrow=classic;html=1;rounded=0;" edge="1" parent="1">
          <mxGeometry width="50" height="50" relative="1" as="geometry">
            <mxPoint x="360" y="269.5" as="sourcePoint" />
            <mxPoint x="560" y="270" as="targetPoint" />
            <Array as="points">
              <mxPoint x="440" y="270" />
            </Array>
          </mxGeometry>
        </mxCell>
        <mxCell id="ld5_4QrdINL1Et6L0Q0W-2" value="" style="endArrow=classic;html=1;rounded=0;" edge="1" parent="1">
          <mxGeometry width="50" height="50" relative="1" as="geometry">
            <mxPoint x="396" y="239" as="sourcePoint" />
            <mxPoint x="396" y="175" as="targetPoint" />
          </mxGeometry>
        </mxCell>
        <mxCell id="ld5_4QrdINL1Et6L0Q0W-4" value="" style="endArrow=classic;html=1;rounded=0;" edge="1" parent="1">
          <mxGeometry width="50" height="50" relative="1" as="geometry">
            <mxPoint x="320" y="239" as="sourcePoint" />
            <mxPoint x="320" y="239" as="targetPoint" />
          </mxGeometry>
        </mxCell>
        <mxCell id="ld5_4QrdINL1Et6L0Q0W-6" value="TO CYANIDE" style="text;html=1;align=center;verticalAlign=middle;resizable=0;points=[];autosize=1;strokeColor=none;fillColor=none;" vertex="1" parent="1">
          <mxGeometry x="220" y="228" width="100" height="30" as="geometry" />
        </mxCell>
        <mxCell id="ld5_4QrdINL1Et6L0Q0W-7" value="" style="endArrow=classic;html=1;rounded=0;" edge="1" parent="1" source="ld5_4QrdINL1Et6L0Q0W-15">
          <mxGeometry width="50" height="50" relative="1" as="geometry">
            <mxPoint x="520" y="100" as="sourcePoint" />
            <mxPoint x="940" y="100" as="targetPoint" />
          </mxGeometry>
        </mxCell>
        <mxCell id="ld5_4QrdINL1Et6L0Q0W-8" value="" style="endArrow=classic;html=1;rounded=0;" edge="1" parent="1">
          <mxGeometry width="50" height="50" relative="1" as="geometry">
            <mxPoint x="670" y="100" as="sourcePoint" />
            <mxPoint x="670" y="40" as="targetPoint" />
          </mxGeometry>
        </mxCell>
        <mxCell id="ld5_4QrdINL1Et6L0Q0W-9" value="" style="endArrow=classic;html=1;rounded=0;" edge="1" parent="1">
          <mxGeometry width="50" height="50" relative="1" as="geometry">
            <mxPoint x="670" y="40" as="sourcePoint" />
            <mxPoint x="900" y="40" as="targetPoint" />
          </mxGeometry>
        </mxCell>
        <mxCell id="ld5_4QrdINL1Et6L0Q0W-10" value="" style="endArrow=none;html=1;rounded=0;" edge="1" parent="1">
          <mxGeometry width="50" height="50" relative="1" as="geometry">
            <mxPoint x="470" y="180" as="sourcePoint" />
            <mxPoint x="470" y="140" as="targetPoint" />
          </mxGeometry>
        </mxCell>
        <mxCell id="ld5_4QrdINL1Et6L0Q0W-11" value="" style="endArrow=none;html=1;rounded=0;" edge="1" parent="1">
          <mxGeometry width="50" height="50" relative="1" as="geometry">
            <mxPoint x="550" y="180" as="sourcePoint" />
            <mxPoint x="550" y="140" as="targetPoint" />
          </mxGeometry>
        </mxCell>
        <mxCell id="ld5_4QrdINL1Et6L0Q0W-12" value="" style="endArrow=none;html=1;rounded=0;" edge="1" parent="1">
          <mxGeometry width="50" height="50" relative="1" as="geometry">
            <mxPoint x="470" y="179.5" as="sourcePoint" />
            <mxPoint x="550" y="179.5" as="targetPoint" />
          </mxGeometry>
        </mxCell>
        <mxCell id="ld5_4QrdINL1Et6L0Q0W-13" value="" style="endArrow=classic;html=1;rounded=0;" edge="1" parent="1">
          <mxGeometry width="50" height="50" relative="1" as="geometry">
            <mxPoint x="550" y="140" as="sourcePoint" />
            <mxPoint x="940" y="140" as="targetPoint" />
          </mxGeometry>
        </mxCell>
        <mxCell id="ld5_4QrdINL1Et6L0Q0W-14" value="" style="shape=collate;whiteSpace=wrap;html=1;direction=south;" vertex="1" parent="1">
          <mxGeometry x="500" y="170" width="20" height="20" as="geometry" />
        </mxCell>
        <mxCell id="ld5_4QrdINL1Et6L0Q0W-16" value="" style="endArrow=classic;html=1;rounded=0;" edge="1" parent="1" target="ld5_4QrdINL1Et6L0Q0W-15">
          <mxGeometry width="50" height="50" relative="1" as="geometry">
            <mxPoint x="520" y="100" as="sourcePoint" />
            <mxPoint x="940" y="100" as="targetPoint" />
          </mxGeometry>
        </mxCell>
        <mxCell id="ld5_4QrdINL1Et6L0Q0W-15" value="" style="shape=collate;whiteSpace=wrap;html=1;direction=south;" vertex="1" parent="1">
          <mxGeometry x="870" y="90" width="20" height="20" as="geometry" />
        </mxCell>
        <mxCell id="ld5_4QrdINL1Et6L0Q0W-17" value="" style="endArrow=none;html=1;rounded=0;" edge="1" parent="1">
          <mxGeometry width="50" height="50" relative="1" as="geometry">
            <mxPoint x="820" y="200" as="sourcePoint" />
            <mxPoint x="820" y="100" as="targetPoint" />
          </mxGeometry>
        </mxCell>
        <mxCell id="ld5_4QrdINL1Et6L0Q0W-18" value="" style="endArrow=classic;html=1;rounded=0;" edge="1" parent="1">
          <mxGeometry width="50" height="50" relative="1" as="geometry">
            <mxPoint x="820" y="200" as="sourcePoint" />
            <mxPoint x="395" y="200" as="targetPoint" />
          </mxGeometry>
        </mxCell>
        <mxCell id="ld5_4QrdINL1Et6L0Q0W-19" value="MBC CAUSTIC LINE" style="text;html=1;align=center;verticalAlign=middle;resizable=0;points=[];autosize=1;strokeColor=none;fillColor=none;" vertex="1" parent="1">
          <mxGeometry x="570" y="198" width="140" height="30" as="geometry" />
        </mxCell>
        <mxCell id="ld5_4QrdINL1Et6L0Q0W-20" value="DC CAUSTIC LINE" style="text;html=1;align=center;verticalAlign=middle;resizable=0;points=[];autosize=1;strokeColor=none;fillColor=none;" vertex="1" parent="1">
          <mxGeometry x="525" y="378" width="130" height="30" as="geometry" />
        </mxCell>
        <mxCell id="ld5_4QrdINL1Et6L0Q0W-21" value="GA 2609" style="text;html=1;align=center;verticalAlign=middle;resizable=0;points=[];autosize=1;strokeColor=none;fillColor=none;" vertex="1" parent="1">
          <mxGeometry x="990" y="360" width="70" height="30" as="geometry" />
        </mxCell>
        <mxCell id="ld5_4QrdINL1Et6L0Q0W-22" value="TO THE RECYCULATION LINE" style="text;html=1;align=center;verticalAlign=middle;resizable=0;points=[];autosize=1;strokeColor=none;fillColor=none;" vertex="1" parent="1">
          <mxGeometry x="575" y="118" width="190" height="30" as="geometry" />
        </mxCell>
        <mxCell id="ld5_4QrdINL1Et6L0Q0W-23" value="FROM MBC LINE" style="text;html=1;align=center;verticalAlign=middle;resizable=0;points=[];autosize=1;strokeColor=none;fillColor=none;" vertex="1" parent="1">
          <mxGeometry x="290" y="528" width="120" height="30" as="geometry" />
        </mxCell>
        <mxCell id="ld5_4QrdINL1Et6L0Q0W-25" value="FROM DC LINE" style="text;html=1;align=center;verticalAlign=middle;resizable=0;points=[];autosize=1;strokeColor=none;fillColor=none;" vertex="1" parent="1">
          <mxGeometry x="295" y="578" width="110" height="30" as="geometry" />
        </mxCell>
        <mxCell id="ld5_4QrdINL1Et6L0Q0W-26" value="" style="endArrow=classic;html=1;rounded=0;" edge="1" parent="1">
          <mxGeometry width="50" height="50" relative="1" as="geometry">
            <mxPoint x="560" y="270" as="sourcePoint" />
            <mxPoint x="560" y="220" as="targetPoint" />
          </mxGeometry>
        </mxCell>
        <mxCell id="ld5_4QrdINL1Et6L0Q0W-27" value="" style="endArrow=none;html=1;rounded=0;entryX=0;entryY=0;entryDx=0;entryDy=0;" edge="1" parent="1" source="ld5_4QrdINL1Et6L0Q0W-45" target="et-MrdShaZoxgfBXi2AH-41">
          <mxGeometry width="50" height="50" relative="1" as="geometry">
            <mxPoint x="190" y="400" as="sourcePoint" />
            <mxPoint x="240" y="350" as="targetPoint" />
          </mxGeometry>
        </mxCell>
        <mxCell id="ld5_4QrdINL1Et6L0Q0W-30" value="" style="shape=collate;whiteSpace=wrap;html=1;direction=south;" vertex="1" parent="1">
          <mxGeometry x="870" y="300" width="20" height="20" as="geometry" />
        </mxCell>
        <mxCell id="ld5_4QrdINL1Et6L0Q0W-39" value="" style="endArrow=none;html=1;rounded=0;" edge="1" parent="1">
          <mxGeometry width="50" height="50" relative="1" as="geometry">
            <mxPoint x="410" y="300" as="sourcePoint" />
            <mxPoint x="410" y="270" as="targetPoint" />
          </mxGeometry>
        </mxCell>
        <mxCell id="ld5_4QrdINL1Et6L0Q0W-40" value="CS-360-MC7-14001" style="text;html=1;align=center;verticalAlign=middle;resizable=0;points=[];autosize=1;strokeColor=none;fillColor=none;" vertex="1" parent="1">
          <mxGeometry x="265" y="378" width="130" height="30" as="geometry" />
        </mxCell>
        <mxCell id="ld5_4QrdINL1Et6L0Q0W-41" value="CS-250-MC7-14001" style="text;html=1;align=center;verticalAlign=middle;resizable=0;points=[];autosize=1;strokeColor=none;fillColor=none;" vertex="1" parent="1">
          <mxGeometry x="215" y="198" width="130" height="30" as="geometry" />
        </mxCell>
        <mxCell id="ld5_4QrdINL1Et6L0Q0W-43" value="CS-250-MC7-14007" style="text;html=1;align=center;verticalAlign=middle;resizable=0;points=[];autosize=1;strokeColor=none;fillColor=none;" vertex="1" parent="1">
          <mxGeometry x="395" y="578" width="130" height="30" as="geometry" />
        </mxCell>
        <mxCell id="ld5_4QrdINL1Et6L0Q0W-47" value="" style="endArrow=none;html=1;rounded=0;entryX=0;entryY=0;entryDx=0;entryDy=0;exitX=0.5;exitY=1;exitDx=0;exitDy=0;exitPerimeter=0;" edge="1" parent="1" source="et-MrdShaZoxgfBXi2AH-65">
          <mxGeometry width="50" height="50" relative="1" as="geometry">
            <mxPoint x="200" y="400" as="sourcePoint" />
            <mxPoint x="730" y="400" as="targetPoint" />
          </mxGeometry>
        </mxCell>
        <mxCell id="ld5_4QrdINL1Et6L0Q0W-45" value="" style="shape=collate;whiteSpace=wrap;html=1;direction=north;rotation=0;" vertex="1" parent="1">
          <mxGeometry x="730" y="390" width="20" height="20" as="geometry" />
        </mxCell>
        <mxCell id="ld5_4QrdINL1Et6L0Q0W-49" value="" style="endArrow=none;html=1;rounded=0;" edge="1" parent="1" source="ld5_4QrdINL1Et6L0Q0W-52">
          <mxGeometry width="50" height="50" relative="1" as="geometry">
            <mxPoint x="720" y="400" as="sourcePoint" />
            <mxPoint x="720" y="380" as="targetPoint" />
          </mxGeometry>
        </mxCell>
        <mxCell id="ld5_4QrdINL1Et6L0Q0W-51" value="" style="endArrow=none;html=1;rounded=0;" edge="1" parent="1" source="ld5_4QrdINL1Et6L0Q0W-52" target="ld5_4QrdINL1Et6L0Q0W-48">
          <mxGeometry width="50" height="50" relative="1" as="geometry">
            <mxPoint x="720" y="400" as="sourcePoint" />
            <mxPoint x="720" y="380" as="targetPoint" />
          </mxGeometry>
        </mxCell>
        <mxCell id="ld5_4QrdINL1Et6L0Q0W-48" value="" style="ellipse;html=1;shape=endState;fillColor=#000000;strokeColor=#ff0000;" vertex="1" parent="1">
          <mxGeometry x="710" y="350" width="20" height="20" as="geometry" />
        </mxCell>
        <mxCell id="ld5_4QrdINL1Et6L0Q0W-53" value="" style="endArrow=none;html=1;rounded=0;" edge="1" parent="1" target="ld5_4QrdINL1Et6L0Q0W-52">
          <mxGeometry width="50" height="50" relative="1" as="geometry">
            <mxPoint x="720" y="400" as="sourcePoint" />
            <mxPoint x="720" y="380" as="targetPoint" />
          </mxGeometry>
        </mxCell>
        <mxCell id="ld5_4QrdINL1Et6L0Q0W-54" value="" style="endArrow=none;html=1;rounded=0;" edge="1" parent="1" source="ld5_4QrdINL1Et6L0Q0W-48" target="ld5_4QrdINL1Et6L0Q0W-52">
          <mxGeometry width="50" height="50" relative="1" as="geometry">
            <mxPoint x="720" y="370" as="sourcePoint" />
            <mxPoint x="720" y="380" as="targetPoint" />
          </mxGeometry>
        </mxCell>
        <mxCell id="ld5_4QrdINL1Et6L0Q0W-52" value="" style="ellipse;whiteSpace=wrap;html=1;aspect=fixed;" vertex="1" parent="1">
          <mxGeometry x="710" y="370" width="20" height="20" as="geometry" />
        </mxCell>
        <mxCell id="ld5_4QrdINL1Et6L0Q0W-56" value="C8-080-MC-14100" style="text;html=1;align=center;verticalAlign=middle;resizable=0;points=[];autosize=1;strokeColor=none;fillColor=none;" vertex="1" parent="1">
          <mxGeometry x="890" y="290" width="120" height="30" as="geometry" />
        </mxCell>
        <mxCell id="ld5_4QrdINL1Et6L0Q0W-58" value="" style="ellipse;whiteSpace=wrap;html=1;aspect=fixed;" vertex="1" parent="1">
          <mxGeometry x="1020" y="300" width="30" height="30" as="geometry" />
        </mxCell>
      </root>
    </mxGraphModel>
  </diagram>
</mxfile>
